<svg width="173" height="50" viewBox="0 0 173 50" fill="none" xmlns="http://www.w3.org/2000/svg">
<mask id="mask0_828_542" style="mask-type:alpha" maskUnits="userSpaceOnUse" x="0" y="0" width="173" height="50">
<path fill-rule="evenodd" clip-rule="evenodd" d="M31.0783 28.8634L20.3851 35.1735C20.0073 35.4003 19.5349 35.4003 19.176 35.2113L10.1453 30.337C9.38962 29.9403 8.95509 29.1468 8.95509 28.3344L9.06845 18.6614C9.06845 17.8868 9.50298 17.1311 10.202 16.7533L20.2151 10.8399C20.3284 10.7832 20.4796 10.7832 20.5929 10.8399L28.7356 15.2419C28.8679 15.2985 29.0001 15.2985 29.1135 15.2419L37.294 10.3865C37.5585 10.2164 37.5585 9.83858 37.294 9.72522L21.3108 1.0913C20.5929 0.713452 19.7805 0.713452 19.1193 1.12909L1.34137 11.6145C0.680134 12.0112 0.264496 12.748 0.207819 13.5226L0 33.6244C0 34.4745 0.43453 35.2491 1.19023 35.627L18.8737 45.1488C19.5916 45.5267 20.4418 45.5267 21.103 45.0922L38.9187 34.2289C39.1832 34.0589 39.3533 33.7944 39.3533 33.4732L39.4666 24.1781C39.4666 23.9136 39.1455 23.7435 38.9187 23.8569L31.0783 28.8634ZM21.103 21.7614L20.6307 22.0259C19.9695 22.4226 19.1004 22.4226 18.4392 22.0825L11.6378 18.474C11.2978 18.304 10.9199 18.5307 10.9199 18.9086V27.5047C10.9199 27.977 11.1466 28.3738 11.5623 28.6383L18.6281 32.7568C19.1193 33.0213 19.7617 33.0213 20.2151 32.7568L38.4653 21.9881C38.692 21.8558 38.8432 21.5913 38.8621 21.2701L39.0321 11.8616C39.0321 11.6349 38.7676 11.4649 38.5598 11.5971L21.103 21.7614ZM25.9016 17.0184L19.8182 20.608C19.686 20.7025 19.497 20.7025 19.327 20.6458L13.338 17.3963C13.0169 17.2263 13.0169 16.754 13.338 16.5839L19.4593 12.9565C19.6104 12.8999 19.7993 12.8999 19.9316 12.9565L25.9016 16.2061C26.2228 16.3761 26.2228 16.8484 25.9016 17.0184ZM47.345 24.1978C47.345 22.573 47.6095 21.0994 48.1196 19.6258C48.6108 18.2088 49.4043 16.9619 50.3867 15.9228C51.3691 14.8837 52.5782 14.0336 53.9763 13.3723C55.3932 12.7678 56.9802 12.4277 58.8128 12.4277C60.003 12.4277 61.0799 12.5411 62.0623 12.7489C63.0447 12.9567 64.0271 13.2401 64.934 13.6746L63.6115 18.7189C63.0069 18.4922 62.3646 18.2844 61.6467 18.1144C60.9287 17.9443 60.173 17.8499 59.2662 17.8499C57.4147 17.8499 56.0167 18.4355 55.0909 19.588C54.1652 20.7404 53.6929 22.2519 53.6929 24.16C53.6929 26.1626 54.1274 27.7118 54.9776 28.8265C55.8277 29.9411 57.358 30.4701 59.474 30.4701C60.2486 30.4701 61.061 30.4135 61.93 30.2623C62.7991 30.1112 63.6115 29.8845 64.3294 29.6011L65.1985 34.7776C64.4428 35.0988 63.5548 35.3633 62.459 35.59C61.3255 35.8167 60.173 35.9301 58.8128 35.9301C56.7913 35.9301 55.0154 35.6089 53.5795 35.0044C52.1248 34.3998 50.9157 33.5874 49.9521 32.5483C48.9886 31.5092 48.3274 30.2812 47.8929 28.8454C47.5717 27.4095 47.345 25.8792 47.345 24.1978ZM86.472 28.9398C86.9821 27.504 87.2466 25.8981 87.2466 24.1411C87.2466 22.403 86.9632 20.816 86.4909 19.3424C85.9997 17.8877 85.2062 16.6785 84.2616 15.6583C83.3169 14.6381 82.1834 13.8635 80.8231 13.2779C79.4628 12.6922 78.0081 12.4277 76.3833 12.4277C74.7964 12.4277 73.3416 12.6922 71.9814 13.2779C70.64 13.8635 69.4687 14.6381 68.5051 15.6583C67.5416 16.6785 66.767 17.9066 66.2191 19.3424C65.6712 20.7782 65.4067 22.3841 65.4067 24.1411C65.4067 25.8981 65.6712 27.4851 66.2191 28.9398C66.7103 30.3757 67.5038 31.6226 68.4484 32.6428C69.3931 33.6819 70.5266 34.4565 71.8869 35.0421C73.2472 35.6278 74.7208 35.8923 76.3456 35.8923C78.0081 35.8923 79.4817 35.6278 80.842 35.0421C82.1834 34.4754 83.3358 33.663 84.2804 32.6428C85.2251 31.6415 85.9808 30.3946 86.472 28.9398ZM79.6518 19.5313C80.4264 20.6649 80.8042 22.1763 80.8042 24.1411C80.8042 26.1059 80.4075 27.6362 79.6518 28.7698C78.8961 29.9222 77.8192 30.5079 76.3456 30.5079C74.8719 30.5079 73.7573 29.9222 72.9827 28.7698C72.1892 27.6174 71.7924 26.1059 71.7924 24.1411C71.7924 22.1763 72.2081 20.6649 72.9827 19.5313C73.7762 18.4355 74.9286 17.8877 76.3456 17.8877C77.7625 17.8877 78.8772 18.3978 79.6518 19.5313ZM109.2 32.5489C109.2 36.1952 108.274 38.8968 106.422 40.6539C104.571 42.4109 101.737 43.2988 97.8263 43.2988C96.4661 43.2988 95.1247 43.1666 93.7644 42.921C92.4041 42.6943 91.1572 42.3731 90.0048 41.9763L91.1383 36.6675C92.1208 37.0643 93.1599 37.3854 94.2367 37.6121C95.3136 37.8389 96.5794 37.9522 97.9397 37.9522C99.7345 37.9522 101.019 37.5555 101.756 36.762C102.512 35.9874 102.89 34.9672 102.89 33.7203V32.9079C102.228 33.2291 101.491 33.4558 100.792 33.6258C100.075 33.7958 99.3188 33.8525 98.412 33.8525C95.3325 33.8525 92.9709 32.9268 91.3462 31.1131C89.7214 29.2994 88.8901 26.7489 88.8901 23.4616C88.8901 21.8368 89.1546 20.3632 89.6647 19.0029C90.1559 17.6427 90.9116 16.5091 91.894 15.5645C92.8765 14.6199 94.0667 13.883 95.4836 13.3352C96.9006 12.844 98.4876 12.5606 100.282 12.5606C101.057 12.5606 101.85 12.5983 102.663 12.6739C103.345 12.7374 104.001 12.8143 104.676 12.8932L104.676 12.8933L105.062 12.9384L105.15 12.9512C105.896 13.0604 106.657 13.1715 107.329 13.3352L107.421 13.3568C108.102 13.5181 108.713 13.6628 109.237 13.8075V32.5489H109.2ZM95.3514 23.4805C95.3514 26.9945 96.7683 28.7893 99.6022 28.7893C100.245 28.7893 100.849 28.7326 101.435 28.5248C102.02 28.3548 102.474 28.147 102.89 27.9202V17.8694C102.568 17.8127 102.228 17.756 101.756 17.7371C101.321 17.6994 100.83 17.6805 100.282 17.6805C98.6387 17.6805 97.3729 18.2283 96.5794 19.3241C95.7481 20.401 95.3514 21.799 95.3514 23.4805ZM112.865 19.1912C112.26 20.6648 111.939 22.403 111.939 24.3678C111.939 26.0303 112.185 27.5417 112.714 28.9776C113.205 30.3567 113.904 31.6037 114.886 32.6238C115.869 33.6441 117.097 34.4564 118.57 35.061C120.044 35.6089 121.801 35.9301 123.804 35.9301C124.597 35.9301 125.409 35.9112 126.184 35.7978C126.996 35.7033 127.752 35.6089 128.413 35.4766C129.01 35.3799 129.538 35.2418 130.044 35.1095L130.044 35.1094C130.131 35.0868 130.217 35.0642 130.303 35.0421C130.888 34.891 131.323 34.7209 131.663 34.5509L130.813 29.4121C130.095 29.7144 129.207 29.9789 128.073 30.1867C126.94 30.3945 125.806 30.5079 124.654 30.5079C122.821 30.5079 121.404 30.13 120.327 29.3554C119.25 28.6186 118.627 27.5606 118.495 26.2759H132.796C132.796 25.9359 132.815 25.558 132.853 25.1235C132.891 24.689 132.891 24.2922 132.891 23.9144C132.891 20.1736 131.984 17.302 130.151 15.3938C128.3 13.4668 125.806 12.4843 122.651 12.4843C121.291 12.4843 119.968 12.7677 118.684 13.2589C117.399 13.7501 116.246 14.5059 115.264 15.4883C114.282 16.4896 113.469 17.7176 112.865 19.1912ZM126.543 20.4003C126.675 20.9293 126.77 21.4205 126.807 21.9684V21.9873H118.495C118.57 21.4394 118.721 20.8916 118.891 20.4003C119.061 19.8525 119.326 19.399 119.666 19.0023C120.006 18.6055 120.46 18.2844 120.951 18.0577C121.461 17.8121 122.065 17.6798 122.783 17.6798C123.482 17.6798 124.125 17.7932 124.616 18.0577C125.069 18.3222 125.485 18.6433 125.825 19.0401C126.146 19.4557 126.411 19.9091 126.543 20.4003ZM135.612 13.8634C136.688 13.5423 138.068 13.2589 139.787 12.9944C141.468 12.7299 143.263 12.5976 145.115 12.5976C147.004 12.5976 148.553 12.8243 149.838 13.3533C151.085 13.8445 152.105 14.5436 152.823 15.4504C153.578 16.3761 154.07 17.4152 154.391 18.6622C154.712 19.9091 154.863 21.3071 154.863 22.8374V35.401H148.553V23.612C148.553 21.5905 148.288 20.1358 147.741 19.2856C147.193 18.4354 146.173 18.0009 144.737 18.0009C144.458 18.0009 144.147 18.0165 143.826 18.0327L143.825 18.0327L143.825 18.0327C143.646 18.0417 143.464 18.0508 143.282 18.0576C143.008 18.0677 142.755 18.0998 142.516 18.1301C142.31 18.1562 142.114 18.1811 141.922 18.1898V35.3254H135.612V13.8634ZM158.264 7.51015L158.226 7.51626V7.49736H158.264V7.51015ZM158.264 7.51015L164.536 6.49606V13.0707H172.093V18.3039H164.536V26.1444C164.536 27.4668 164.763 28.5437 165.254 29.3183C165.745 30.0929 166.671 30.5085 168.069 30.5085C168.73 30.5085 169.467 30.4519 170.166 30.3007C170.884 30.1685 171.564 29.9796 172.131 29.7528L173 34.646C172.225 34.9672 171.375 35.2317 170.449 35.4584C169.505 35.6851 168.39 35.7985 167.03 35.7985C165.292 35.7985 163.875 35.5718 162.779 35.0806C161.646 34.6082 160.758 33.947 160.077 33.1157C159.416 32.2656 158.925 31.2831 158.66 30.074C158.396 28.8838 158.264 27.5802 158.264 26.1632V7.51015ZM117.965 48.8521H121.442V49.8345H116.718V40.0292H117.965V48.8521ZM132.475 47.5483H136.763L137.613 49.8155H138.974L135.346 40.1991H133.929L130.302 49.8155H131.662L132.475 47.5483ZM134.591 41.6539L136.385 46.5848H132.796L134.591 41.6539ZM154.787 45.6025C155.164 46.0371 155.372 46.585 155.372 47.1706C155.372 47.983 155.108 48.5876 154.56 49.0788C154.012 49.5511 153.237 49.7967 152.179 49.7967H148.533V40.0292H152.123C153.105 40.0292 153.861 40.237 154.352 40.6716C154.843 41.1061 155.127 41.7107 155.127 42.4664C155.127 43.1087 154.957 43.6188 154.635 43.9967C154.295 44.3934 153.861 44.639 153.351 44.7524C153.936 44.8846 154.409 45.168 154.787 45.6025ZM149.818 44.299H151.915C152.52 44.299 152.992 44.1667 153.332 43.8644C153.672 43.5999 153.823 43.2032 153.823 42.6553C153.823 42.1641 153.653 41.7862 153.351 41.4651C153.048 41.1439 152.538 41.0305 151.877 41.0305H149.818V44.299ZM153.502 48.3042C153.88 47.983 154.05 47.5485 154.05 47.0195C154.05 46.4905 153.842 46.0371 153.464 45.7348C153.086 45.4136 152.538 45.2625 151.896 45.2625H149.799V48.7387H151.934C152.614 48.7387 153.124 48.6065 153.502 48.3042ZM170.089 49.5511C170.524 49.2866 170.883 48.9654 171.11 48.5687C171.317 48.153 171.469 47.7185 171.487 47.2651C171.487 46.6605 171.355 46.1693 171.091 45.7915C170.826 45.4136 170.486 45.1113 170.108 44.9413C169.73 44.7524 169.22 44.5634 168.578 44.3556C168.495 44.327 168.415 44.2995 168.338 44.2728C167.955 44.1411 167.636 44.0311 167.369 43.9211C167.048 43.7699 166.821 43.5999 166.613 43.3732C166.405 43.1087 166.292 42.8253 166.292 42.4475C166.292 41.9563 166.443 41.5784 166.764 41.3139C167.048 41.0494 167.482 40.9172 167.973 40.9172C168.521 40.9172 168.956 41.0305 169.296 41.3517C169.636 41.6162 169.844 41.9752 169.9 42.3719H171.261C171.147 41.6162 170.864 41.0494 170.278 40.5771C169.73 40.0859 168.937 39.8592 167.992 39.8592C167.35 39.8592 166.84 39.9725 166.367 40.1804C165.933 40.4449 165.555 40.7282 165.328 41.1061C165.083 41.5217 164.951 41.9752 164.951 42.4664C164.951 43.0331 165.083 43.5054 165.347 43.8833C165.574 44.2612 165.914 44.5257 166.292 44.6957C166.632 44.8846 167.161 45.0735 167.766 45.2814C168.186 45.4015 168.523 45.5454 168.805 45.6658C168.877 45.697 168.947 45.7265 169.012 45.7537C169.315 45.9048 169.579 46.1126 169.787 46.3393C169.995 46.6038 170.108 46.925 170.108 47.3218C170.108 47.813 169.995 48.153 169.674 48.4742C169.371 48.7765 168.937 48.9087 168.389 48.9087C167.973 48.9087 167.633 48.8143 167.312 48.6442C166.991 48.4742 166.764 48.2664 166.594 48.0019C166.462 47.7374 166.367 47.454 166.33 47.1895H164.969C164.988 47.7374 165.177 48.2097 165.461 48.6065C165.744 49.0032 166.179 49.3622 166.67 49.5889C167.199 49.8156 167.766 49.9289 168.408 49.9289C169.069 49.9289 169.655 49.8156 170.089 49.5511Z" fill="black"/>
</mask>
<g mask="url(#mask0_828_542)">
<rect x="-5.19043" y="-21.6641" width="186.86" height="89.9696" rx="6" fill="black"/>
</g>
</svg>
