<svg width="244" height="69" viewBox="0 0 244 69" fill="none" xmlns="http://www.w3.org/2000/svg">
<mask id="mask0_828_812" style="mask-type:alpha" maskUnits="userSpaceOnUse" x="0" y="0" width="244" height="69">
<path fill-rule="evenodd" clip-rule="evenodd" d="M43.6593 39.4064L28.6373 48.271C28.1065 48.5895 27.443 48.5895 26.9387 48.3241L14.2523 41.4766C13.1907 40.9193 12.5803 39.8045 12.5803 38.6633L12.7395 25.0745C12.7395 23.9863 13.3499 22.9247 14.3319 22.3939L28.3985 14.0867C28.5577 14.0071 28.77 14.0071 28.9293 14.0867L40.3683 20.2706C40.5541 20.3503 40.7399 20.3503 40.8991 20.2706L52.3912 13.4497C52.7628 13.2108 52.7628 12.68 52.3912 12.5208L29.9378 0.391711C28.9293 -0.139101 27.788 -0.139101 26.8591 0.444793L1.88438 15.1748C0.955463 15.7322 0.371569 16.7673 0.291947 17.8554L0 46.0947C0 47.289 0.610434 48.3772 1.67206 48.908L26.5141 62.2845C27.5226 62.8153 28.717 62.8153 29.6459 62.2048L54.6737 46.944C55.0453 46.7051 55.2841 46.3335 55.2841 45.8824L55.4434 32.8244C55.4434 32.4528 54.9922 32.2139 54.6737 32.3732L43.6593 39.4064ZM29.6458 29.4278L28.9823 29.7994C28.0534 30.3567 26.8325 30.3567 25.9036 29.879L16.349 24.8097C15.8712 24.5709 15.3404 24.8894 15.3404 25.4202V37.4962C15.3404 38.1597 15.6589 38.717 16.2428 39.0886L26.169 44.8745C26.8591 45.246 27.7614 45.246 28.3984 44.8745L54.0367 29.7463C54.3551 29.5605 54.5675 29.1889 54.594 28.7378L54.8329 15.5205C54.8329 15.202 54.4613 14.9632 54.1694 15.149L29.6458 29.4278ZM36.3869 22.7657L27.8408 27.8084C27.6551 27.9411 27.3896 27.9411 27.1508 27.8615L18.7374 23.2965C18.2862 23.0576 18.2862 22.3941 18.7374 22.1552L27.3366 17.0594C27.5489 16.9798 27.8143 16.9798 28.0001 17.0594L36.3869 21.6244C36.8381 21.8633 36.8381 22.5268 36.3869 22.7657ZM66.5111 32.8532C66.5111 30.5707 66.8827 28.5005 67.5993 26.4303C68.2893 24.4398 69.404 22.6881 70.7841 21.2284C72.1643 19.7686 73.8629 18.5743 75.8269 17.6454C77.8174 16.7961 80.0468 16.3184 82.6213 16.3184C84.2933 16.3184 85.8061 16.4776 87.1863 16.7696C88.5664 17.0615 89.9465 17.4596 91.2204 18.07L89.3626 25.1564C88.5133 24.8379 87.6109 24.546 86.6024 24.3071C85.5938 24.0682 84.5322 23.9355 83.2582 23.9355C80.6573 23.9355 78.6933 24.7583 77.3928 26.3773C76.0923 27.9962 75.4288 30.1195 75.4288 32.8001C75.4288 35.6134 76.0392 37.7897 77.2335 39.3556C78.4278 40.9215 80.5776 41.6647 83.5502 41.6647C84.6384 41.6647 85.7796 41.585 87.0005 41.3727C88.2213 41.1604 89.3626 40.8419 90.3711 40.4438L91.592 47.7159C90.5304 48.1671 89.283 48.5387 87.7436 48.8572C86.1512 49.1757 84.5322 49.3349 82.6213 49.3349C79.7814 49.3349 77.2866 48.8837 75.2695 48.0344C73.2259 47.1851 71.5273 46.0439 70.1737 44.5841C68.8201 43.1244 67.8912 41.3993 67.2808 39.3822C66.8296 37.3651 66.5111 35.2153 66.5111 32.8532ZM121.477 39.5149C122.194 37.4978 122.565 35.2418 122.565 32.7736C122.565 30.3318 122.167 28.1024 121.504 26.0322C120.814 23.9886 119.699 22.29 118.372 20.8568C117.045 19.4236 115.453 18.3354 113.542 17.5127C111.631 16.6899 109.587 16.3184 107.305 16.3184C105.075 16.3184 103.032 16.6899 101.121 17.5127C99.2363 18.3354 97.5908 19.4236 96.2372 20.8568C94.8836 22.29 93.7954 24.0151 93.0258 26.0322C92.2561 28.0493 91.8845 30.3053 91.8845 32.7736C91.8845 35.2418 92.2561 37.4712 93.0258 39.5149C93.7158 41.532 94.8305 43.2836 96.1576 44.7168C97.4846 46.1766 99.077 47.2647 100.988 48.0875C102.899 48.9103 104.969 49.2818 107.252 49.2818C109.587 49.2818 111.657 48.9103 113.568 48.0875C115.453 47.2913 117.072 46.15 118.399 44.7168C119.726 43.3102 120.787 41.5585 121.477 39.5149ZM111.896 26.2976C112.984 27.8901 113.515 30.0133 113.515 32.7736C113.515 35.5338 112.958 37.6836 111.896 39.276C110.835 40.895 109.322 41.7177 107.252 41.7177C105.181 41.7177 103.615 40.895 102.527 39.276C101.413 37.657 100.855 35.5338 100.855 32.7736C100.855 30.0133 101.439 27.8901 102.527 26.2976C103.642 24.7583 105.261 23.9886 107.252 23.9886C109.242 23.9886 110.808 24.7052 111.896 26.2976ZM153.406 44.5837C153.406 49.706 152.105 53.5013 149.504 55.9696C146.903 58.4379 142.922 59.6853 137.428 59.6853C135.517 59.6853 133.633 59.4995 131.722 59.1545C129.811 58.836 128.059 58.3848 126.44 57.8275L128.033 50.3696C129.413 50.9269 130.873 51.3781 132.385 51.6966C133.898 52.0151 135.676 52.1743 137.587 52.1743C140.109 52.1743 141.913 51.617 142.949 50.5023C144.01 49.4141 144.541 47.9809 144.541 46.2292V45.088C143.612 45.5392 142.577 45.8576 141.595 46.0965C140.586 46.3354 139.525 46.415 138.251 46.415C133.925 46.415 130.607 45.1145 128.325 42.5666C126.042 40.0187 124.874 36.4357 124.874 31.8176C124.874 29.5352 125.246 27.465 125.963 25.5541C126.653 23.6431 127.714 22.0507 129.094 20.7237C130.474 19.3966 132.147 18.3615 134.137 17.5919C136.128 16.9018 138.357 16.5037 140.878 16.5037C141.967 16.5037 143.081 16.5568 144.223 16.6629C145.182 16.7522 146.103 16.8601 147.051 16.9711C147.23 16.9922 147.411 17.0133 147.593 17.0345L147.716 17.0525C148.765 17.2059 149.833 17.362 150.778 17.5919L150.906 17.6223L150.907 17.6224L150.907 17.6225C151.864 17.849 152.722 18.0522 153.459 18.2554V44.5837H153.406ZM133.951 31.8442C133.951 36.7808 135.942 39.3021 139.923 39.3021C140.825 39.3021 141.675 39.2225 142.497 38.9305C143.32 38.6917 143.957 38.3997 144.541 38.0812V23.9616C144.09 23.882 143.612 23.8024 142.949 23.7758C142.338 23.7228 141.648 23.6962 140.878 23.6962C138.569 23.6962 136.791 24.4659 135.676 26.0053C134.509 27.5181 133.951 29.4821 133.951 31.8442ZM158.554 25.8204C157.705 27.8905 157.253 30.3323 157.253 33.0925C157.253 35.4281 157.598 37.5513 158.342 39.5684C159.032 41.5059 160.014 43.2576 161.394 44.6908C162.774 46.1239 164.499 47.2652 166.569 48.1145C168.639 48.8842 171.108 49.3354 173.921 49.3354C175.036 49.3354 176.177 49.3088 177.265 49.1496C178.406 49.0169 179.468 48.8842 180.397 48.6984C181.235 48.5624 181.977 48.3685 182.688 48.1825L182.84 48.1427C182.911 48.1243 182.981 48.106 183.051 48.088C183.874 47.8756 184.484 47.6368 184.962 47.3979L183.768 40.1788C182.759 40.6035 181.512 40.9751 179.919 41.267C178.327 41.559 176.734 41.7182 175.115 41.7182C172.541 41.7182 170.55 41.1874 169.037 40.0992C167.525 39.0641 166.649 37.5779 166.463 35.7731H186.554C186.554 35.2954 186.581 34.7646 186.634 34.1541C186.687 33.5437 186.687 32.9863 186.687 32.4555C186.687 27.2005 185.413 23.1663 182.839 20.4857C180.238 17.7786 176.734 16.3984 172.302 16.3984C170.391 16.3984 168.533 16.7965 166.728 17.4866C164.924 18.1767 163.305 19.2383 161.925 20.6184C160.544 22.0251 159.403 23.7502 158.554 25.8204ZM177.769 27.519C177.955 28.2621 178.088 28.9522 178.141 29.7218V29.7484H166.463C166.569 28.9787 166.782 28.209 167.02 27.519C167.259 26.7493 167.631 26.1123 168.109 25.555C168.586 24.9976 169.223 24.5464 169.913 24.2279C170.63 23.8829 171.479 23.6971 172.488 23.6971C173.47 23.6971 174.372 23.8564 175.062 24.2279C175.699 24.5995 176.283 25.0507 176.761 25.608C177.212 26.1919 177.584 26.8289 177.769 27.519ZM190.509 18.3347C192.022 17.8835 193.96 17.4854 196.375 17.1139C198.737 16.7423 201.258 16.5565 203.859 16.5565C206.513 16.5565 208.69 16.875 210.495 17.6181C212.246 18.3082 213.679 19.2902 214.688 20.5642C215.75 21.8646 216.44 23.3244 216.891 25.0761C217.342 26.8277 217.554 28.7917 217.554 30.9415V48.5911H208.69V32.0297C208.69 29.1899 208.318 27.1462 207.549 25.9519C206.779 24.7576 205.346 24.1471 203.329 24.1471C202.936 24.1471 202.5 24.1691 202.048 24.1918C201.797 24.2044 201.541 24.2173 201.285 24.2268C200.9 24.241 200.545 24.286 200.208 24.3287C199.919 24.3653 199.644 24.4003 199.374 24.4125V48.4849H190.509V18.3347ZM222.332 9.40878L222.278 9.41737V9.39083H222.332V9.40878ZM222.332 9.40878L231.143 7.98417V17.2203H241.759V24.5721H231.143V35.5864C231.143 37.4443 231.462 38.9571 232.152 40.0453C232.842 41.1334 234.142 41.7173 236.106 41.7173C237.035 41.7173 238.07 41.6377 239.052 41.4254C240.061 41.2396 241.016 40.9742 241.812 40.6557L243.033 47.5297C241.945 47.9809 240.751 48.3525 239.45 48.671C238.123 48.9894 236.557 49.1487 234.646 49.1487C232.205 49.1487 230.214 48.8302 228.675 48.1401C227.082 47.4766 225.835 46.5477 224.879 45.3799C223.951 44.1856 223.26 42.8055 222.889 41.1069C222.517 39.4348 222.332 37.6035 222.332 35.613V9.40878ZM165.719 67.4865H170.603V68.8666H163.968V55.092H165.719V67.4865ZM186.102 65.6544H192.127L193.321 68.8393H195.232L190.137 55.3301H188.146L183.05 68.8393H184.961L186.102 65.6544ZM189.075 57.3737L191.596 64.3008H186.554L189.075 57.3737ZM217.447 62.9215C217.978 63.5319 218.269 64.3016 218.269 65.1244C218.269 66.2656 217.898 67.1149 217.128 67.805C216.359 68.4685 215.27 68.8135 213.784 68.8135H208.662V55.092H213.704C215.085 55.092 216.146 55.384 216.836 55.9944C217.526 56.6048 217.924 57.4541 217.924 58.5158C217.924 59.4182 217.686 60.1347 217.234 60.6656C216.757 61.2229 216.146 61.5679 215.43 61.7272C216.252 61.913 216.916 62.3111 217.447 62.9215ZM210.467 61.0902H213.413C214.262 61.0902 214.925 60.9044 215.403 60.4798C215.881 60.1082 216.093 59.5509 216.093 58.7812C216.093 58.0911 215.854 57.5603 215.43 57.1091C215.005 56.6579 214.288 56.4987 213.359 56.4987H210.467V61.0902ZM215.642 66.7168C216.173 66.2656 216.412 65.6552 216.412 64.9121C216.412 64.1689 216.12 63.5319 215.589 63.1073C215.058 62.6561 214.288 62.4438 213.386 62.4438H210.44V67.3273H213.439C214.395 67.3273 215.111 67.1415 215.642 66.7168ZM238.944 68.4688C239.555 68.0973 240.059 67.6461 240.377 67.0887C240.669 66.5048 240.882 65.8944 240.908 65.2574C240.908 64.4081 240.722 63.718 240.351 63.1872C239.979 62.6564 239.502 62.2318 238.971 61.9929C238.44 61.7275 237.723 61.4621 236.821 61.1701C236.705 61.13 236.593 61.0913 236.484 61.0539C235.946 60.8688 235.498 60.7143 235.122 60.5597C234.671 60.3474 234.353 60.1085 234.061 59.79C233.769 59.4185 233.61 59.0204 233.61 58.4895C233.61 57.7995 233.822 57.2687 234.273 56.8971C234.671 56.5255 235.282 56.3398 235.972 56.3398C236.741 56.3398 237.352 56.499 237.83 56.9502C238.307 57.3218 238.599 57.826 238.679 58.3834H240.59C240.431 57.3218 240.032 56.5255 239.21 55.862C238.44 55.172 237.325 54.8535 235.998 54.8535C235.096 54.8535 234.379 55.0127 233.716 55.3047C233.105 55.6762 232.574 56.0743 232.256 56.6052C231.911 57.1891 231.725 57.826 231.725 58.5161C231.725 59.3123 231.911 59.9758 232.283 60.5066C232.601 61.0374 233.079 61.409 233.61 61.6479C234.087 61.9133 234.83 62.1787 235.68 62.4706C236.27 62.6394 236.743 62.8416 237.139 63.0107C237.242 63.0545 237.339 63.096 237.431 63.1342C237.856 63.3465 238.228 63.6384 238.52 63.9569C238.812 64.3285 238.971 64.7797 238.971 65.337C238.971 66.0271 238.812 66.5048 238.36 66.956C237.936 67.3807 237.325 67.5664 236.556 67.5664C235.972 67.5664 235.494 67.4337 235.043 67.1949C234.592 66.956 234.273 66.6641 234.034 66.2925C233.848 65.9209 233.716 65.5228 233.663 65.1512H231.752C231.778 65.9209 232.044 66.5844 232.442 67.1418C232.84 67.6991 233.45 68.2034 234.14 68.5219C234.884 68.8404 235.68 68.9996 236.582 68.9996C237.511 68.9996 238.334 68.8404 238.944 68.4688Z" fill="white"/>
</mask>
<g mask="url(#mask0_828_812)">
<rect x="-7.29175" y="-31.5762" width="262.504" height="126.391" rx="7.29177" fill="black"/>
</g>
</svg>
