<svg width="53" height="50" viewBox="0 0 53 50" fill="none" xmlns="http://www.w3.org/2000/svg">
<path d="M37.6329 14.3955C25.8566 14.3955 14.1788 14.3955 2.44191 14.3955C2.44191 17.507 2.44191 20.5987 2.44191 23.8086C2.71761 23.8086 3.013 23.8086 3.2887 23.8086C10.1615 23.8086 17.054 23.8086 23.9267 23.8086C24.1631 23.8086 24.4191 23.789 24.6554 23.8283C25.2462 23.9071 25.6006 24.2813 25.6597 24.8327C25.7385 25.4038 25.4628 25.8567 24.9114 26.0536C24.5963 26.1521 24.2418 26.1718 23.907 26.1718C17.054 26.1718 10.2009 26.1718 3.32808 26.1718C3.03269 26.1718 2.75699 26.1718 2.42221 26.1718C2.42221 29.3226 2.42221 32.4144 2.42221 35.6243C2.69791 35.6243 2.97361 35.6243 3.269 35.6243C8.94053 35.6243 14.6317 35.6243 20.3033 35.6243C20.5396 35.6243 20.7956 35.6046 21.0319 35.644C21.603 35.7228 21.9575 36.0773 22.0362 36.6483C22.0953 37.2194 21.859 37.6724 21.3076 37.8693C21.0122 37.9678 20.6774 37.9875 20.3623 37.9875C14.6908 37.9875 8.99961 37.9875 3.32808 37.9875C3.03269 37.9875 2.75699 37.9875 2.42221 37.9875C2.40252 38.2238 2.38283 38.3813 2.38283 38.5585C2.38283 41.0989 2.38283 43.6393 2.38283 46.16C2.38283 47.2431 2.77668 47.6172 3.85979 47.6172C10.9886 47.6172 18.1174 47.6172 25.2462 47.6172C25.5612 47.6172 25.896 47.6172 26.1914 47.7157C26.7625 47.8929 26.9988 48.3459 26.9397 48.917C26.8807 49.5077 26.5262 49.8622 25.9551 49.941C25.7385 49.9804 25.5219 49.9607 25.2855 49.9607C18.1764 49.9607 11.087 49.9607 3.97794 49.9607C1.39819 49.9607 0.0196928 48.5822 0.0196928 46.0024C0.0196928 32.0205 0.0590784 18.019 0 4.01739C0 1.63456 1.65419 -0.0196346 4.03702 5.82212e-05C14.6711 0.0591366 25.3249 0.0591366 35.959 5.82212e-05C38.3222 -0.0196346 40.0354 1.57548 39.9961 4.01739C39.937 8.46796 39.9764 12.8988 39.9764 17.3297C39.9764 17.566 39.9764 17.822 39.9173 18.0583C39.7597 18.6885 39.3462 19.043 38.6963 18.9839C38.0465 18.9445 37.6526 18.5507 37.6329 17.8811C37.5935 16.9949 37.6132 16.1088 37.6132 15.2226C37.6132 14.9666 37.6329 14.7106 37.6329 14.3955ZM2.40252 11.9536C14.1788 11.9536 25.8763 11.9536 37.6329 11.9536C37.6329 11.6385 37.6329 11.3825 37.6329 11.1068C37.6329 8.78304 37.6329 6.47899 37.6329 4.15524C37.6329 2.69797 37.3178 2.38289 35.8606 2.38289C25.2855 2.38289 14.7302 2.38289 4.15518 2.38289C3.93856 2.38289 3.70224 2.36319 3.48562 2.38289C2.83576 2.44196 2.40252 2.81613 2.40252 3.46599C2.38283 6.28206 2.40252 9.09813 2.40252 11.9536Z" fill="black"/>
<path d="M41.9457 25.5022C43.4621 26.2308 43.4621 26.2308 44.6043 25.0886C45.8252 23.8677 47.0659 23.8677 48.2671 25.0689C48.661 25.4628 49.0745 25.8566 49.4684 26.2702C50.3939 27.2548 50.3939 28.5349 49.4881 29.5195C49.3305 29.6967 49.1533 29.8937 48.9564 30.0315C48.3065 30.5238 48.1293 31.0162 48.5428 31.8236C48.7988 32.3356 49.0942 32.434 49.5471 32.3947C52.3041 32.178 53.1509 33.4187 52.954 35.8015C52.9146 36.1954 52.9737 36.5892 52.9146 36.9831C52.7571 38.1253 51.9497 38.8933 50.8075 38.9917C50.4924 39.0311 50.1576 39.0508 49.8425 38.9917C49.0745 38.8736 48.6413 39.1296 48.3853 39.8976C48.2277 40.3899 48.2277 40.6853 48.6216 41.0398C50.6696 42.7924 50.6499 44.1906 48.6019 45.963C48.2277 46.2781 47.893 46.6719 47.4794 46.9082C46.6523 47.4006 45.6283 47.2627 44.88 46.6128C44.683 46.4356 44.4861 46.2387 44.3089 46.0418C43.3636 45.1162 43.3636 45.0965 42.2214 45.7464C42.0836 45.8251 41.9457 46.0811 41.9457 46.2584C41.9063 46.7901 41.9457 47.3415 41.926 47.8732C41.867 49.0154 40.9808 49.9212 39.8386 49.9606C39.0706 50 38.3223 50 37.5542 49.9606C36.353 49.9212 35.4865 49.0548 35.388 47.8732C35.3683 47.5581 35.329 47.2233 35.388 46.9082C35.5259 46.0811 35.2108 45.6873 34.4231 45.4116C33.9308 45.254 33.6748 45.2737 33.3597 45.6479C33.1037 45.9433 32.828 46.219 32.5326 46.4947C31.5282 47.4006 30.2679 47.4203 29.2833 46.5144C28.7713 46.0418 28.2986 45.5494 27.826 45.0571C26.9595 44.1316 26.9595 42.8712 27.8063 41.926C28.0032 41.7093 28.2002 41.473 28.4365 41.2958C29.0666 40.8429 29.2045 40.3702 28.8106 39.6219C28.5743 39.1493 28.338 38.972 27.826 38.9917C27.2746 39.0114 26.6838 39.0114 26.1324 38.913C25.1084 38.716 24.4191 37.8692 24.3798 36.8255C24.3601 36.0969 24.3601 35.3486 24.3798 34.6199C24.4191 33.4187 25.325 32.4931 26.5263 32.4143C26.8414 32.3947 27.1761 32.3553 27.4912 32.4143C28.2789 32.5522 28.6925 32.2371 28.9288 31.4691C29.0666 31.0162 29.1454 30.7011 28.7122 30.386C28.4562 30.1891 28.2592 29.9527 28.0229 29.7164C26.8611 28.5349 26.8611 27.2745 28.0229 26.1127C28.4168 25.7188 28.8106 25.3052 29.2242 24.9114C30.2088 23.9464 31.5086 23.9464 32.5129 24.8917C32.7098 25.0689 32.9264 25.2462 33.084 25.4628C33.5566 26.1126 34.0686 26.152 34.7776 25.7976C35.2305 25.5613 35.4077 25.3643 35.3683 24.872C35.329 24.3994 35.3486 23.9267 35.388 23.4738C35.4865 22.3119 36.2939 21.4848 37.4361 21.4258C38.2632 21.3864 39.11 21.3864 39.9371 21.4455C41.0792 21.5242 41.867 22.3907 41.926 23.5329C41.9654 24.2024 41.9457 24.872 41.9457 25.5022ZM47.8142 43.4423C46.1206 42.241 45.4117 40.961 46.2584 38.8145C47.1249 36.5695 48.7397 36.5498 50.5515 36.668C50.5515 35.959 50.5515 35.388 50.5515 34.6987C48.5625 34.9941 47.1052 34.6987 46.2191 32.5128C45.3329 30.3466 46.2781 29.1256 47.696 28.0229C47.2234 27.5108 46.8295 27.0776 46.3569 26.5656C45.2147 28.2395 43.9347 28.9681 41.7882 28.1213C39.6023 27.2548 39.4447 25.6991 39.6023 23.8086C38.9327 23.8086 38.3813 23.8086 37.7118 23.8086C37.9087 25.7385 37.6724 27.2745 35.5062 28.141C33.3597 29.0075 32.119 28.1213 30.9572 26.605C30.4648 27.0776 30.0513 27.4911 29.5393 27.9638C31.1147 29.1453 31.9418 30.386 31.095 32.5522C30.2088 34.7972 28.6334 34.9153 26.7823 34.7381C26.7823 35.447 26.7823 36.0181 26.7823 36.7074C28.7713 36.412 30.2285 36.7074 31.1147 38.8736C32.0009 41.0398 31.0162 42.2607 29.7165 43.3242C30.1497 43.8755 30.5042 44.3285 30.8784 44.7814C32.0009 43.7968 32.7689 42.3986 34.5806 42.9303C36.9044 43.6195 38.2829 44.8996 37.6527 47.5581C38.3813 47.5581 38.9524 47.5581 39.7008 47.5581C38.913 44.8996 40.3506 43.7574 42.5365 42.9894C44.4664 42.3198 45.2935 43.7771 46.3766 44.742C46.8492 44.3482 47.2628 43.9543 47.8142 43.4423Z" fill="black"/>
<path d="M13.0561 20.2643C11.1656 20.2643 9.27513 20.2643 7.38463 20.2643C6.59691 20.2643 6.0849 19.8705 5.98644 19.2206C5.88797 18.492 6.43937 17.9209 7.30585 17.9012C8.92066 17.8815 10.5552 17.9012 12.17 17.9012C14.2968 17.9012 16.4433 17.9012 18.5701 17.9012C19.5154 17.9012 20.0668 18.3148 20.0865 19.0434C20.1062 19.7917 19.5351 20.2643 18.5701 20.2643C16.7387 20.2643 14.8876 20.2643 13.0561 20.2643Z" fill="black"/>
<path d="M13.0169 32.0796C11.1264 32.0796 9.23591 32.0993 7.3454 32.0796C6.34107 32.0796 5.75029 31.3313 6.04568 30.5239C6.24261 30.0119 6.61677 29.7362 7.16817 29.7362C11.0673 29.7362 14.9862 29.7362 18.8854 29.7362C19.5943 29.7362 20.0669 30.2482 20.0866 30.8784C20.1063 31.5479 19.5549 32.0796 18.7672 32.0796C16.857 32.0993 14.9468 32.0796 13.0169 32.0796Z" fill="black"/>
<path d="M13.0564 41.5331C14.9272 41.5331 16.798 41.5331 18.6491 41.5331C19.5353 41.5331 20.067 41.986 20.067 42.6753C20.0867 43.4039 19.5156 43.8765 18.6097 43.8962C14.8681 43.8962 11.1462 43.8962 7.40454 43.8962C6.49867 43.8962 5.92758 43.4236 5.94727 42.695C5.94727 41.9663 6.49867 41.5331 7.44392 41.5331C9.33443 41.5331 11.1856 41.5331 13.0564 41.5331Z" fill="black"/>
<path d="M26.4474 20.9326C25.4037 20.9129 24.5766 20.0661 24.5963 19.0421C24.616 18.0574 25.4628 17.2303 26.4671 17.2303C27.4911 17.2303 28.3576 18.0968 28.3576 19.1012C28.3576 20.1252 27.4911 20.9523 26.4474 20.9326Z" fill="black"/>
<path d="M32.3552 20.9328C31.3115 20.9131 30.4844 20.0466 30.5238 19.0226C30.5632 18.0379 31.41 17.2108 32.3946 17.2108C33.4187 17.2108 34.2851 18.0773 34.2654 19.0816C34.2457 20.1253 33.3793 20.9524 32.3552 20.9328Z" fill="black"/>
<path d="M13.0563 8.44794C11.1658 8.44794 9.27526 8.44794 7.38476 8.44794C6.59704 8.44794 6.08503 8.05408 5.98657 7.40422C5.8881 6.69528 6.41981 6.10449 7.22721 6.0848C8.78294 6.06511 10.319 6.0848 11.8747 6.0848C14.1 6.0848 16.345 6.0848 18.5703 6.0848C19.5549 6.0848 20.1063 6.53774 20.0866 7.28606C20.0669 7.995 19.4958 8.44794 18.59 8.44794C16.7388 8.44794 14.8877 8.44794 13.0563 8.44794Z" fill="black"/>
<path d="M24.6553 7.2872C24.6553 6.24348 25.5021 5.377 26.5064 5.39669C27.5107 5.41638 28.3772 6.32225 28.3575 7.32659C28.3378 8.31123 27.491 9.15801 26.5261 9.17771C25.5021 9.17771 24.6553 8.31123 24.6553 7.2872Z" fill="black"/>
<path d="M30.5435 7.26751C30.5435 6.2238 31.4099 5.37701 32.4143 5.3967C33.3792 5.41639 34.226 6.28288 34.2457 7.26751C34.2654 8.27185 33.3989 9.17771 32.3946 9.17771C31.3706 9.17771 30.5435 8.31123 30.5435 7.26751Z" fill="black"/>
<path d="M38.7752 29.0863C42.7137 29.2044 45.4313 32.119 45.3132 36.1166C45.2147 39.7598 42.2017 42.6349 38.5979 42.5364C34.6397 42.438 31.9024 39.4644 32.0205 35.4667C32.1584 31.7842 35.132 28.9878 38.7752 29.0863ZM42.9697 35.8212C42.9697 33.399 41.0201 31.4297 38.6373 31.4494C36.2742 31.4691 34.364 33.399 34.364 35.8015C34.364 38.204 36.3332 40.2127 38.6964 40.193C41.0595 40.1536 42.9697 38.204 42.9697 35.8212Z" fill="black"/>
</svg>
