<svg width="24" height="24" viewBox="0 0 24 24" fill="none" xmlns="http://www.w3.org/2000/svg">
<path d="M21.2171 6.95117V16.5954C21.2171 17.2348 20.9631 17.8481 20.5109 18.3002C20.0588 18.7524 19.4455 19.0064 18.8061 19.0064H4.33976C3.70031 19.0064 3.08705 18.7524 2.63489 18.3002C2.18273 17.8481 1.92871 17.2348 1.92871 16.5954V6.95117" stroke="black" stroke-width="1.62022" stroke-linecap="round" stroke-linejoin="round"/>
<path d="M21.2171 6.95206C21.2171 6.31261 20.9631 5.69935 20.5109 5.2472C20.0588 4.79504 19.4455 4.54102 18.8061 4.54102H4.33976C3.70031 4.54102 3.08705 4.79504 2.63489 5.2472C2.18273 5.69935 1.92871 6.31261 1.92871 6.95206L10.2951 12.176C10.6782 12.4155 11.121 12.5425 11.5729 12.5425C12.0248 12.5425 12.4676 12.4155 12.8508 12.176L21.2171 6.95206Z" stroke="black" stroke-width="1.62022" stroke-linecap="round" stroke-linejoin="round"/>
</svg>
