<svg width="19" height="19" viewBox="0 0 19 19" fill="none" xmlns="http://www.w3.org/2000/svg">
<path fill-rule="evenodd" clip-rule="evenodd" d="M0.849609 9.39453C0.849609 5.79939 0.849609 4.00182 1.7063 2.70708C2.08886 2.12892 2.584 1.63378 3.16216 1.25122C4.4569 0.394531 6.25447 0.394531 9.84961 0.394531C13.4447 0.394531 15.2423 0.394531 16.5371 1.25122C17.1152 1.63378 17.6104 2.12892 17.9929 2.70708C18.8496 4.00182 18.8496 5.79939 18.8496 9.39453C18.8496 12.9897 18.8496 14.7872 17.9929 16.082C17.6104 16.6601 17.1152 17.1553 16.5371 17.5378C15.2423 18.3945 13.4447 18.3945 9.84961 18.3945C6.25447 18.3945 4.4569 18.3945 3.16216 17.5378C2.584 17.1553 2.08886 16.6601 1.7063 16.082C0.849609 14.7872 0.849609 12.9897 0.849609 9.39453ZM14.5089 9.39397C14.5089 11.9673 12.4228 14.0534 9.84948 14.0534C7.27616 14.0534 5.19007 11.9673 5.19007 9.39397C5.19007 6.82065 7.27616 4.73456 9.84948 4.73456C12.4228 4.73456 14.5089 6.82065 14.5089 9.39397ZM9.84948 12.477C11.5522 12.477 12.9325 11.0967 12.9325 9.39397C12.9325 7.69127 11.5522 6.31096 9.84948 6.31096C8.14678 6.31096 6.76647 7.69127 6.76647 9.39397C6.76647 11.0967 8.14678 12.477 9.84948 12.477ZM14.6929 5.59608C15.2975 5.59608 15.7877 5.10591 15.7877 4.50126C15.7877 3.8966 15.2975 3.40643 14.6929 3.40643C14.0882 3.40643 13.5981 3.8966 13.5981 4.50126C13.5981 5.10591 14.0882 5.59608 14.6929 5.59608Z" fill="#B722FF"/>
</svg>
