<svg width="24" height="30" viewBox="0 0 24 30" fill="none" xmlns="http://www.w3.org/2000/svg">
<path d="M19.5133 16.9606C19.5133 23.1856 13.1375 27.0206 11.8125 27.7511C11.7391 27.7916 11.6566 27.8128 11.5728 27.8128C11.489 27.8128 11.4065 27.7916 11.3331 27.7511C10.0071 27.0206 3.6333 23.1856 3.6333 16.9606C3.6333 11.9982 6.61079 8.52441 11.5733 8.52441C16.5358 8.52441 19.5133 11.9982 19.5133 16.9606Z" stroke="black" stroke-width="1.62022" stroke-linecap="round" stroke-linejoin="round"/>
<path d="M7.60352 16.4646C7.60352 17.5175 8.02178 18.5273 8.7663 19.2718C9.51082 20.0163 10.5206 20.4346 11.5735 20.4346C12.6264 20.4346 13.6362 20.0163 14.3807 19.2718C15.1252 18.5273 15.5435 17.5175 15.5435 16.4646C15.5435 15.4117 15.1252 14.4019 14.3807 13.6574C13.6362 12.9129 12.6264 12.4946 11.5735 12.4946C10.5206 12.4946 9.51082 12.9129 8.7663 13.6574C8.02178 14.4019 7.60352 15.4117 7.60352 16.4646V16.4646Z" stroke="black" stroke-width="1.62022" stroke-linecap="round" stroke-linejoin="round"/>
</svg>
