<svg width="22" height="22" viewBox="0 0 22 22" fill="none" xmlns="http://www.w3.org/2000/svg">
<path d="M13.1787 19.5465L13.1892 19.5539C14.1001 20.1339 15.1815 20.3857 16.2549 20.2678C17.3282 20.15 18.3292 19.6694 19.0925 18.9056L19.7556 18.2425C19.9025 18.0957 20.0191 17.9213 20.0986 17.7294C20.1782 17.5375 20.2191 17.3318 20.2191 17.1241C20.2191 16.9163 20.1782 16.7106 20.0986 16.5187C20.0191 16.3268 19.9025 16.1524 19.7556 16.0056L16.9589 13.211C16.8121 13.0641 16.6377 12.9475 16.4458 12.868C16.2539 12.7884 16.0482 12.7475 15.8404 12.7475C15.6327 12.7475 15.427 12.7884 15.2351 12.868C15.0432 12.9475 14.8688 13.0641 14.722 13.211C14.4254 13.5074 14.0233 13.674 13.604 13.674C13.1847 13.674 12.7826 13.5074 12.4861 13.211L8.01431 8.73819C7.71787 8.44166 7.55134 8.03954 7.55134 7.62025C7.55134 7.20096 7.71787 6.79883 8.01431 6.50231C8.16125 6.35546 8.27782 6.1811 8.35734 5.98919C8.43687 5.79728 8.47781 5.59158 8.47781 5.38384C8.47781 5.1761 8.43687 4.9704 8.35734 4.77849C8.27782 4.58658 8.16125 4.41222 8.01431 4.26537L5.21867 1.47078C4.92214 1.17434 4.52002 1.00781 4.10073 1.00781C3.68144 1.00781 3.27931 1.17434 2.98278 1.47078L2.31866 2.13385C1.55501 2.89725 1.07466 3.89834 0.956977 4.9717C0.839292 6.04505 1.09132 7.12644 1.6714 8.03717L1.67773 8.04771C4.74132 12.5804 8.64542 16.4838 13.1787 19.5465V19.5465Z" stroke="black" stroke-width="1.62022" stroke-linecap="round" stroke-linejoin="round"/>
</svg>
