<svg width="211" height="51" viewBox="0 0 211 51" fill="none" xmlns="http://www.w3.org/2000/svg">
<path d="M164.473 34.3724V34.6937C164.955 37.906 166.24 42.0821 171.701 41.6003H172.022L171.862 41.279C171.541 39.8335 166.561 35.6574 164.795 34.533L164.313 34.2118L164.473 34.3724ZM202.379 4.97925L202.54 5.78234C203.022 8.67347 204.307 11.2434 205.913 12.6889L206.234 13.0102L206.395 12.3677V12.2071C206.877 9.15533 204.146 6.42482 203.022 5.46111L202.7 5.13987L202.379 4.97925ZM208.001 10.119L207.68 10.7615C206.877 12.8496 206.555 17.5075 206.716 19.7561L207.037 21.0411L207.198 20.8805L207.358 20.5592C209.125 18.4712 209.125 15.7407 208.804 13.6526C208.643 12.2071 208.322 11.2434 208.162 10.7615L208.001 10.4403V10.119ZM210.089 18.15L209.607 18.7924C208.001 20.8805 205.752 26.3415 205.752 28.2689V28.9114L206.234 28.5902C210.25 26.0203 210.41 21.0411 210.25 18.9531V18.6318L210.089 18.15ZM209.446 26.984L208.804 27.3052C206.234 28.9114 202.219 33.8906 201.416 35.9786L201.255 36.6211L201.897 36.4605C206.073 35.1755 208.804 30.5176 209.286 27.6265V27.3052L209.446 26.984ZM200.934 9.31595L201.094 10.119C201.737 12.2071 203.664 15.7407 205.431 17.1863L205.913 17.5075V16.865C206.073 13.9739 204.628 11.7252 201.576 9.7978L201.255 9.63718L200.934 9.31595ZM202.7 15.5801V16.2225C202.54 18.3106 204.307 22.9685 205.431 24.5747L205.752 25.0566L205.913 24.5747C206.073 23.9322 206.234 23.4504 206.234 22.9685C206.395 19.5955 203.825 16.865 203.022 16.0619L202.861 15.9013L202.7 15.5801ZM202.54 21.3623L202.379 22.0048C202.219 22.4867 202.058 23.2898 202.058 24.2535C202.058 26.984 202.379 30.357 203.022 31.4813L203.182 31.9632L203.504 31.4813C204.307 30.357 204.789 29.072 204.789 27.6265C204.789 25.8597 204.146 23.7716 202.861 21.8442L202.7 21.5229L202.54 21.3623ZM201.094 27.6265L200.773 28.1083C199.488 29.7145 197.882 35.1755 197.882 37.2636V37.7454L198.043 38.2273L198.364 38.0667C200.612 36.6211 201.737 34.533 201.897 31.9632C201.897 30.8388 201.737 29.5539 201.416 28.2689L201.255 27.9477L201.094 27.6265ZM205.752 35.9786L205.11 36.1392C202.861 36.4605 196.436 40.1547 195.473 41.6003L195.151 41.9215H195.633C200.934 42.8852 203.825 39.191 205.431 36.4605L205.592 36.1392L205.752 35.9786ZM180.214 44.1702C180.053 44.1702 176.198 46.2582 173.789 49.4706L173.629 49.6312L173.789 49.7918C173.95 49.9524 174.432 50.2737 174.592 50.4343H174.753L174.914 50.2737C177.323 47.3825 181.338 43.6883 185.675 43.3671C186.317 44.0095 186.96 44.4914 187.763 44.8126C190.172 45.6157 194.509 45.2945 197.882 43.8489L198.685 43.5277L197.882 43.3671C189.69 41.279 183.587 42.564 180.214 44.1702M197.561 34.0512L197.079 34.3724C195.312 35.4968 190.493 39.6728 190.012 41.1184L189.851 41.4396H190.172C195.473 41.9215 196.758 37.7454 197.4 34.533V34.2118L197.561 34.0512ZM61.9987 1.9275H68.7447V8.031H61.9987V1.9275ZM62.6412 15.0982H68.2628V44.9732H62.6412V15.0982ZM20.0773 15.0982H25.699V44.9732H20.2379V40.6365H20.0773C17.8286 44.3308 13.9738 45.937 9.79773 45.937C3.53361 45.937 0 41.1184 0 35.1755V15.0982H5.62165V32.7662C5.62165 37.906 6.74598 41.7609 12.207 41.7609C14.4557 41.7609 17.668 40.6365 18.7924 37.4242C19.9167 34.6937 19.9167 31.1601 19.9167 30.357V15.0982H20.0773ZM36.9422 19.4349C39.0303 15.7407 43.0457 14.1345 46.0975 14.1345C48.1855 14.1345 57.3408 14.6164 57.3408 24.2535V44.8126H51.7191V26.0203C51.7191 21.0411 49.6311 18.4712 44.8125 18.4712C44.8125 18.4712 41.7608 18.3106 39.3515 20.7199C38.5484 21.5229 36.9422 22.8079 36.9422 28.7508V44.9732H31.3206V15.0982H36.9422V19.4349ZM91.8738 24.5747C91.5525 20.8805 89.7857 18.3106 85.7703 18.3106C80.4699 18.3106 78.3818 22.9685 78.3818 29.8751C78.3818 36.7817 80.4699 41.4396 85.7703 41.4396C89.4645 41.4396 91.7131 39.0304 92.0344 34.6937H97.656C97.1742 41.4396 92.195 45.4551 85.6096 45.4551C76.1331 45.4551 72.2783 38.7091 72.2783 30.0357C72.2783 21.3623 76.615 14.1345 86.0915 14.1345C92.3556 14.1345 97.0135 18.15 97.3348 24.5747H91.8738ZM106.008 30.9994C105.526 36.1392 107.775 41.6003 113.397 41.6003C117.733 41.6003 119.982 39.8335 120.624 35.4968H126.567C125.604 42.2427 120.464 45.6157 113.397 45.6157C103.92 45.6157 100.065 38.8697 100.065 30.1963C100.065 21.523 104.402 14.2951 113.878 14.2951C122.713 14.4557 126.889 20.0774 126.889 28.2689V30.9994H106.008ZM121.106 27.1446C121.267 22.1654 119.018 18.3106 113.557 18.3106C108.899 18.3106 106.169 22.326 106.169 27.1446H121.106ZM133.313 44.652V18.9531H128.174V15.0982H133.313V8.67347C133.474 2.24874 138.453 0.481934 142.629 0.481934C143.914 0.481934 145.36 0.80317 146.645 1.12441V5.78234C145.681 5.78234 144.717 5.62172 143.754 5.62172C140.541 5.62172 138.774 6.42482 138.935 9.63718V15.0982H145.842V18.9531H138.935V44.652H133.313Z" fill="white"/>
</svg>
